#!OML:ASF F:\VICON\USERDATA\INSTALL\rory3\rory3.ASF
:FULLY-SPECIFIED
:DEGREES
1968
root -3.36258 14.8338 22.2114 635.527 -43.1347 65.9622
lowerback -21.669 -9.55899 5.93091
upperback -16.9758 -14.0025 3.22789
thorax -7.64559 -7.82862 -1.55938
lowerneck 0.543668 -22.1441 -18.161
upperneck -10.1977 -33.0121 34.4935
head 6.07849 -15.9109 9.39167
rclavicle 3.97569e-014 -2.22639e-014
rhumerus -14.4767 -44.865 24.7939
rradius 37.7913
rwrist -12.3406
rhand -20.25 -51.9398
rfingers 7.12502
rthumb -173.902 458.168
lclavicle 3.97569e-014 -2.22639e-014
lhumerus -4.38968 14.8217 9.89656
lradius 24.4046
lwrist 37.3034
lhand -32.4979 -12.3285
lfingers 7.12502
lthumb -5.72947 17.574
rfemur -36.6197 -2.47927 36.6709
rtibia 53.0788
rfoot 0.881739 -22.3434
rtoes 31.7333
lfemur 8.94661 29.4707 -2.55635
ltibia 84.8126
lfoot 12.0659 -4.90294
ltoes -2.22291
1969
root -3.38438 14.8446 22.1986 636.385 -42.8803 65.3452
lowerback -21.5855 -9.54291 5.90804
upperback -17.009 -13.9623 3.30843
thorax -7.69306 -7.79827 -1.44111
lowerneck 0.60745 -22.143 -18.3417
upperneck -10.0637 -32.9821 34.3677
head 6.1038 -15.8922 9.3853
rclavicle 6.99722e-014 9.22361e-014
rhumerus -14.3528 -44.829 24.8098
rradius 37.8625
rwrist -12.538
rhand -18.3197 -49.8378
rfingers 7.12502
rthumb -172.038 460.332
lclavicle 6.99722e-014 9.22361e-014
lhumerus -4.50181 14.4714 9.9952
lradius 24.5494
lwrist 37.7317
lhand -32.3433 -13.0475
lfingers 7.12502
lthumb -5.58016 16.859
rfemur -36.663 -2.35011 36.6072
rtibia 53.1425
rfoot 0.60713 -22.4264
rtoes 27.9572
lfemur 8.98238 29.5392 -2.55039
ltibia 84.789
lfoot 12.1588 -4.67838
ltoes -1.92027
1970
root -3.39894 14.8191 22.218 637.214 -42.5192 64.7879
lowerback -21.5608 -9.52939 5.86959
upperback -16.9843 -13.9249 3.32275
thorax -7.65745 -7.76945 -1.40481
lowerneck 0.335166 -22.2124 -18.4236
upperneck -9.82076 -33.0491 34.2677
head 6.22592 -15.879 9.30101
rclavicle 1.11319e-014 -8.90555e-014
rhumerus -14.1339 -45.1716 24.6727
rradius 37.7592
rwrist -12.1655
rhand -16.5216 -48.4516
rfingers 7.12502
rthumb -170.303 461.792
lclavicle 1.11319e-014 -8.90555e-014
lhumerus -4.59855 14.3686 9.99327
lradius 24.6349
lwrist 37.9644
lhand -32.1565 -12.3789
lfingers 7.12502
lthumb -5.39981 17.5323
rfemur -36.5302 -2.24332 36.5742
rtibia 52.9832
rfoot 1.42333 -22.3062
rtoes 27.0249
lfemur 8.9341 29.6509 -2.62414
ltibia 85.0311
lfoot 11.9362 -4.57254
ltoes -1.54365
1971
root -3.41661 14.821 22.2052 638.035 -42.2704 64.2311
lowerback -21.5208 -9.45101 5.94215
upperback -16.919 -13.8231 3.26687
thorax -7.62488 -7.72232 -1.48983
lowerneck 0.0980988 -22.338 -18.2654
upperneck -9.76974 -33.1312 34.1543
head 6.24391 -15.8903 9.1976
rclavicle -8.90555e-014 -1.17681e-013
rhumerus -14.0037 -45.5296 24.5639
rradius 37.6255
rwrist -11.8818
rhand -16.8879 -49.1523
rfingers 7.12502
rthumb -170.656 461.075
lclavicle -8.90555e-014 -1.17681e-013
lhumerus -4.3693 14.7564 10.1036
lradius 24.5484
lwrist 37.7948
lhand -31.4902 -13.0176
lfingers 7.12502
lthumb -4.7565 16.909
rfemur -36.4769 -2.0869 36.5561
rtibia 52.803
rfoot 1.27953 -22.274
rtoes 26.2805
lfemur 8.96535 29.7615 -2.58266
ltibia 85.126
lfoot 11.7725 -4.82734
ltoes -2.44645
1972
root -3.42189 14.8178 22.1847 639.29 -43.1063 63.3076
lowerback -21.5447 -9.33343 6.88954
upperback -16.884 -13.7935 3.57176
thorax -7.73454 -7.76258 -1.63497
lowerneck 0.277188 -22.3896 -18.1069
upperneck -9.96551 -33.1165 34.1473
head 6.12571 -15.9135 9.2136
rclavicle 8.74653e-014 -3.81667e-014
rhumerus -14.4934 -44.9399 24.9538
rradius 37.9456
rwrist -12.5289
rhand -17.1005 -49.294
rfingers 7.12502
rthumb -170.862 460.924
lclavicle 8.74653e-014 -3.81667e-014
lhumerus -4.12036 15.3052 10.3111
lradius 24.4382
lwrist 37.4579
lhand -30.9387 -13.793
lfingers 7.12502
lthumb -4.22394 16.1449
rfemur -36.4037 -1.82224 37.7677
rtibia 52.1437
rfoot 1.19931 -22.5233
rtoes 31.8583
lfemur 8.52194 29.8779 -1.16763
ltibia 85.6424
lfoot 11.6635 -5.29639
ltoes -2.61594
1973
root -3.43533 14.7935 22.2007 640.378 -43.1359 62.4088
lowerback -21.5881 -9.38001 7.12931
upperback -16.8706 -13.8701 3.73254
thorax -7.72363 -7.80249 -1.60253
lowerneck 0.404655 -22.3956 -18.2288
upperneck -9.97726 -33.142 34.2683
head 6.15813 -15.9337 9.26433
rclavicle 1.59028e-014 5.725e-014
rhumerus -14.6145 -44.1726 25.0834
rradius 38.169
rwrist -13.2056
rhand -17.2352 -49.124
rfingers 7.12502
rthumb -170.992 461.088
lclavicle 1.59028e-014 5.725e-014
lhumerus -4.18523 15.5608 10.3712
lradius 24.4184
lwrist 37.2914
lhand -30.8778 -13.2263
lfingers 7.12502
lthumb -4.16513 16.7127
rfemur -36.2908 -1.98082 38.3099
rtibia 51.8291
rfoot 2.71091 -22.4028
rtoes 28.4451
lfemur 8.35617 29.8183 -0.717814
ltibia 85.9572
lfoot 11.5017 -5.26615
ltoes -1.46604
1974
root -3.43434 14.715 22.2721 641.323 -42.8961 61.73
lowerback -21.6108 -9.37492 7.17948
upperback -16.8477 -13.858 3.7935
thorax -7.67964 -7.79024 -1.572
lowerneck 0.355373 -22.4782 -18.3403
upperneck -9.95593 -33.2525 34.362
head 6.23898 -15.9702 9.2561
rclavicle 8.42847e-014 6.99722e-014
rhumerus -14.6878 -43.7647 25.1488
rradius 38.2978
rwrist -13.6827
rhand -18.0507 -49.9033
rfingers 7.12502
rthumb -171.779 460.277
lclavicle 8.42847e-014 6.99722e-014
lhumerus -4.24487 15.4991 10.3824
lradius 24.4346
lwrist 37.4155
lhand -31.0289 -12.6059
lfingers 7.12502
lthumb -4.31102 17.3302
rfemur -35.9147 -2.1943 38.7304
rtibia 51.1273
rfoot 7.79822 -21.005
rtoes 15.1619
lfemur 8.08365 29.8803 -0.589744
ltibia 86.6237
lfoot 11.059 -5.28779
ltoes -0.96155
1975
root -3.47008 14.8046 22.1661 642.185 -42.572 61.0838
lowerback -21.488 -9.39368 7.1684
upperback -16.8569 -13.8578 3.83462
thorax -7.73657 -7.78197 -1.49988
lowerneck 0.246451 -22.5048 -18.3142
upperneck -9.81548 -33.2377 34.2227
head 6.25841 -15.9463 9.20181
rclavicle -1.59028e-015 -3.18055e-015
rhumerus -14.4491 -44.0118 24.8524
rradius 38.3223
rwrist -13.5671
rhand -18.7435 -50.959
rfingers 7.12502
rthumb -172.447 459.196
lclavicle -1.59028e-015 -3.18055e-015
lhumerus -4.34427 15.5362 10.3704
lradius 24.4156
lwrist 37.3505
lhand -30.9443 -12.7993
lfingers 7.12502
lthumb -4.22934 17.1384
rfemur -36.2136 -1.92639 38.2858
rtibia 51.4037
rfoot 2.61111 -22.266
rtoes 28.6038
lfemur 8.27272 29.9165 -0.687785
ltibia 85.984
lfoot 11.3973 -5.15993
ltoes -0.379618
1976
root -3.48889 14.7966 22.1658 643.335 -42.7847 59.9656
lowerback -21.4548 -9.42061 7.76847
upperback -16.841 -13.9548 3.94514
thorax -7.8784 -7.86856 -1.67271
lowerneck 0.257101 -22.3915 -18.2005
upperneck -9.68277 -33.019 34.046
head 6.18843 -15.854 9.20852
rclavicle 9.54166e-015 5.08889e-014
rhumerus -13.8961 -44.7253 24.191
rradius 38.1375
rwrist -12.772
rhand -18.9761 -51.1182
rfingers 7.12502
rthumb -172.672 459.029
lclavicle 9.54166e-015 5.08889e-014
lhumerus -4.47828 15.5073 10.2878
lradius 24.464
lwrist 37.2166
lhand -30.7372 -13.0186
lfingers 7.12502
lthumb -4.02938 16.9231
rfemur -35.9389 -2.06844 38.9448
rtibia 51.1278
rfoot 3.20856 -22.3066
rtoes 27.1695
lfemur 8.23483 29.644 -0.0446836
ltibia 86.0419
lfoot 11.2804 -5.22905
ltoes -0.373152
1977
root -3.51246 14.7981 22.158 644.22 -42.5765 59.2369
lowerback -21.5186 -9.39292 7.95284
upperback -16.7672 -13.9389 3.88444
thorax -7.82599 -7.87298 -1.8451
lowerneck 0.409932 -22.2924 -18.0053
upperneck -9.85342 -32.7857 34.0735
head 6.03654 -15.7866 9.29201
rclavicle 9.22361e-014 4.77083e-014
rhumerus -13.855 -44.7574 24.1914
rradius 37.9521
rwrist -12.5358
rhand -18.9628 -50.9085
rfingers 7.12502
rthumb -172.659 459.239
lclavicle 9.22361e-014 4.77083e-014
lhumerus -4.44769 15.5636 10.2414
lradius 24.5301
lwrist 37.0867
lhand -30.482 -13.2168
lfingers 7.12502
lthumb -3.78296 16.7293
rfemur -35.9736 -2.10856 39.0832
rtibia 51.3629
rfoot 3.12358 -22.3947
rtoes 27.0749
lfemur 8.36756 29.5894 0.10728
ltibia 85.8299
lfoot 11.3532 -5.31015
ltoes -0.813199
1978
root -3.53983 14.8026 22.1441 644.935 -41.9848 58.8518
lowerback -21.6782 -9.40592 7.61849
upperback -16.7192 -13.909 3.86827
thorax -7.59775 -7.82193 -1.7436
lowerneck 0.539728 -22.3813 -18.0566
upperneck -10.1656 -32.86 34.3565
head 6.01513 -15.8429 9.37248
rclavicle -3.65764e-014 -1.145e-013
rhumerus -14.4235 -44.0409 24.7687
rradius 38.2417
rwrist -13.1531
rhand -18.365 -50.0865
rfingers 7.12502
rthumb -172.082 460.082
lclavicle -3.65764e-014 -1.145e-013
lhumerus -4.49554 15.8409 10.2867
lradius 24.5038
lwrist 36.9157
lhand -30.2582 -13.2469
lfingers 7.12502
lthumb -3.5668 16.703
rfemur -36.031 -2.05465 38.7704
rtibia 51.3886
rfoot 3.16539 -22.2584
rtoes 26.8836
lfemur 8.41335 29.6837 -0.272752
ltibia 85.6589
lfoot 11.3924 -5.12582
ltoes -0.0910198
1979
root -3.5696 14.8024 22.1246 645.635 -41.2514 58.5183
lowerback -21.8231 -9.48371 7.01081
upperback -16.7151 -13.917 3.9283
thorax -7.3378 -7.7623 -1.42898
lowerneck 0.540222 -22.4154 -18.1887
upperneck -10.2583 -32.8395 34.4279
head 6.02323 -15.8334 9.40839
rclavicle 9.54166e-015 3.81667e-014
rhumerus -13.6289 -45.2537 24.2368
rradius 37.7939
rwrist -11.8927
rhand -17.9748 -49.3091
rfingers 7.12502
rthumb -171.705 460.874
lclavicle 9.54166e-015 3.81667e-014
lhumerus -4.67049 15.9158 10.3683
lradius 24.6054
lwrist 36.903
lhand -30.4804 -12.8272
lfingers 7.12502
lthumb -3.78139 17.119
rfemur -36.1898 -1.88437 38.3116
rtibia 51.6024
rfoot 3.07044 -22.2718
rtoes 26.7248
lfemur 8.42619 29.7624 -0.828407
ltibia 85.4358
lfoot 11.4819 -4.68939
ltoes 1.56369
